<svg id="a448ed73-4e48-47cc-b76b-53b8ab0e5d49" data-name="Layer 1" xmlns="http://www.w3.org/2000/svg" viewBox="0 0 1550.18 421.19"><defs><style>.aae38d6f-184d-4a92-916f-ab2583b5fb8e{fill:#fff;}.ab320736-0ae9-4a16-9228-c3dd05f11c77{fill:#f9d542;}</style></defs><path class="aae38d6f-184d-4a92-916f-ab2583b5fb8e" d="M17,244.2H73c0,9.2,6.8,20,23.6,20,12.4,0,22.8-5.2,22.8-14,0-6-4.4-8.8-18.4-12l-24.4-6.4c-54.8-14.8-56.4-46-56.4-61.6,0-27.6,31.2-55.6,76.4-55.6,35.2,0,78,16.4,77.2,63.2h-56c0-12-8.4-17.6-20-17.6-10,0-18.4,4-18.4,12,0,7.2,6.4,11.2,16,13.6l32.4,8.8c46.8,12.8,50.8,42.4,50.8,55.2,0,41.2-42.8,59.6-80.4,59.6C56.6,309.4,17,286.6,17,244.2Z"/><path class="aae38d6f-184d-4a92-916f-ab2583b5fb8e" d="M408.4,211.8c0,60.4-44,97.2-90.8,97.2-19.2,0-44-7.2-57.6-24.4V397.79H200.8V119.4H260v20c13.6-17.6,38.4-24.8,57.6-24.8C364.4,114.6,408.4,151.8,408.4,211.8Zm-60,0c0-23.6-20-42-43.2-42-22.8,0-43.2,18-43.2,42,0,24.4,20.8,42.4,43.2,42.4C328.4,254.2,348.4,235.8,348.4,211.8Z"/><path class="aae38d6f-184d-4a92-916f-ab2583b5fb8e" d="M727.4,119.4V52.2H668.2v67.2h-34v44.4h34v42L727.4,265V163.8h39.2V119.4Z"/><path class="aae38d6f-184d-4a92-916f-ab2583b5fb8e" d="M792,21h59.2V305.8H792Z"/><path class="aae38d6f-184d-4a92-916f-ab2583b5fb8e" d="M873.59,56.6c0-19.6,16.8-34.4,36.8-34.4s36,14.8,36,34.4c0,18.8-16,34.4-36,34.4S873.59,75.4,873.59,56.6Zm7.2,62.8H940V305.8h-59.2Z"/><path class="aae38d6f-184d-4a92-916f-ab2583b5fb8e" d="M1172.39,119.4v162c0,79.19-41.6,118.79-109.2,118.79-42.4,0-78.4-24.4-93.2-59.59l48.8-19.6c6.8,15.2,24.8,27.6,44.4,27.6,30.8,0,50.4-17.2,50.4-60V285c-14,17.2-38.8,24.4-58,24.4-46.4,0-90.4-36.8-90.4-97.2s44-97.2,90.4-97.2c19.2,0,44,7.2,58,24.4v-20Zm-61.2,92.8c0-24-20.4-42-42.8-42-23.2,0-43.2,18.4-43.2,42s20,42,43.2,42C1091.19,254.2,1111.19,236.2,1111.19,212.2Z"/><path class="aae38d6f-184d-4a92-916f-ab2583b5fb8e" d="M1386.78,205.4V305.8h-59.19V212.2c0-28.8-17.6-39.6-32.4-39.6-16,0-36,8.4-36,39.6v93.6H1200V21h59.2V149c6.8-24,36.8-34.4,53.6-34.4C1362.39,114.6,1386.78,148.2,1386.78,205.4Z"/><path class="aae38d6f-184d-4a92-916f-ab2583b5fb8e" d="M1529.18,163.8H1490v142h-59.2v-142h-34V119.4h34V52.2H1490v67.2h39.2Z"/><path class="ab320736-0ae9-4a16-9228-c3dd05f11c77" d="M525.54,114.46c-53.2,0-101.2,38.4-101.2,97.6,0,20.68,5.94,38.84,16,53.69q1.72,2.6,3.65,5.05a93.49,93.49,0,0,0,12,12.8c18.55,16.4,43.42,25.66,69.55,25.66,26.53,0,51.87-9.55,70.6-26.42A94.21,94.21,0,0,0,607,271.34q2.16-2.71,4.1-5.59c10.09-14.85,16.08-33,16.08-53.69C627.14,152.86,578.74,114.46,525.54,114.46Zm0,54.8c22.8,0,41.2,17.2,41.2,42.8s-18.4,42.4-41.2,42.4-41.2-16.8-41.2-42.4S502.74,169.26,525.54,169.26Z"/><polygon class="aae38d6f-184d-4a92-916f-ab2583b5fb8e" points="412.59 111.89 412.01 111.89 412.01 107.49 412.59 111.89"/></svg>