<svg id="b09800ac-329d-4bb5-bf9b-8ce0115f2f74" data-name="Layer 1" xmlns="http://www.w3.org/2000/svg" viewBox="0 0 270 250"><defs><style>.f07b52e9-4c1b-4ab9-8ef5-1e7e3883cf83{fill:#f9d542;}.fad433c7-e67f-46b3-a892-bcd6c6bdc9d4{fill:#0f0f0f;}</style></defs><circle class="f07b52e9-4c1b-4ab9-8ef5-1e7e3883cf83" cx="139.5" cy="121.31" r="106.5"/><path class="fad433c7-e67f-46b3-a892-bcd6c6bdc9d4" d="M220,15.19a24,24,0,0,0-21.1,35.44L159.59,89.94a31.8,31.8,0,0,0-39.18,0L89.73,59.26A15.75,15.75,0,0,0,92,51.19a16,16,0,1,0-16,16,15.75,15.75,0,0,0,8.07-2.27L114.75,95.6a31.8,31.8,0,0,0,0,39.18L64.09,185.44a23.78,23.78,0,1,0,5,6.31l51.32-51.32A31.78,31.78,0,0,0,136,146.91v40.64a24,24,0,1,0,8,0V146.91a31.78,31.78,0,0,0,15.59-6.48l30.68,30.68a15.79,15.79,0,0,0-2.27,8.08,16,16,0,1,0,16-16,15.79,15.79,0,0,0-8.08,2.27l-30.67-30.68a31.8,31.8,0,0,0,0-39.18l38.66-38.66A24,24,0,1,0,220,15.19Zm-152,36a8,8,0,1,1,8,8A8,8,0,0,1,68,51.19Zm-20,168a16,16,0,1,1,16-16A16,16,0,0,1,48,219.19Zm108-8a16,16,0,1,1-16-16A16,16,0,0,1,156,211.19Zm-16-72a24,24,0,1,1,24-24A24,24,0,0,1,140,139.19Zm72,40a8,8,0,1,1-8-8A8,8,0,0,1,212,179.19Zm8-124a16,16,0,1,1,16-16A16,16,0,0,1,220,55.19Z"/></svg>