<svg id="b56db4cd-82d8-46e2-b910-6851ee0c048d" data-name="Layer 1" xmlns="http://www.w3.org/2000/svg" viewBox="0 0 270 250"><defs><style>.ab1c2e2c-1aae-4c46-88f9-72efabe8312d{fill:#f9d542;}.bb9f02d7-aad7-4863-8c53-2d9a9b607e1c{fill:#0f0f0f;}</style></defs><circle class="ab1c2e2c-1aae-4c46-88f9-72efabe8312d" cx="135.35" cy="131.7" r="106.5"/><path class="bb9f02d7-aad7-4863-8c53-2d9a9b607e1c" d="M234.52,22.28a35.88,35.88,0,0,0-50.68,0L40.24,165.87a2,2,0,0,0-.17.23c-.08.09-.15.19-.23.3a4.1,4.1,0,0,0-.5.95c0,.1-.08.2-.11.3s0,.08,0,.12L25.1,226.9a3.68,3.68,0,0,0-.08.8c0,.06,0,.1,0,.16a3.78,3.78,0,0,0,.26,1.32,1.69,1.69,0,0,0,.12.28,3.85,3.85,0,0,0,.78,1.18A4,4,0,0,0,29,231.81a4.06,4.06,0,0,0,.92-.11L89,217.62a1.88,1.88,0,0,0,.3-.12,3.25,3.25,0,0,0,.4-.15,4.4,4.4,0,0,0,.8-.49c.09-.08.19-.13.28-.22l.11-.08L234.52,73A35.88,35.88,0,0,0,234.52,22.28Zm-5.63,5.63a27.9,27.9,0,0,1,2.59,36.38l-39-39A27.9,27.9,0,0,1,228.89,27.91ZM209.18,87,169.76,47.62,175.39,42l39.42,39.42ZM44.75,212a4,4,0,0,0-5.63,0l-3,3,10.17-42.72,17.61-2-2.27,20.4c0,.15,0,.29,0,.44s0,.28,0,.44.09.23.11.36a5,5,0,0,0,.2.66,4.48,4.48,0,0,0,.38.72,3.9,3.9,0,0,0,.4.51,4.45,4.45,0,0,0,.62.53,3.81,3.81,0,0,0,.55.33,4,4,0,0,0,.83.27c.15,0,.27.12.43.14l.43,0h0l.43,0,20.4-2.27-2,17.61L41.74,220.69l3-3A4,4,0,0,0,44.75,212Zm50-21.81,89.11-89.12a4,4,0,0,0-5.64-5.63L89.1,184.6l-19,2.11,2.11-19,89.12-89.11A4,4,0,0,0,155.69,73L66.57,162.07,53.9,163.48,164.13,53.25l39.42,39.42L93.32,202.9ZM220.44,75.78,181,36.36l5.63-5.64,39.43,39.42Z"/></svg>