<svg id="af845e6e-ef95-4613-b39c-e0233fa0fd4e" data-name="Layer 1" xmlns="http://www.w3.org/2000/svg" viewBox="0 0 1426 1198"><defs><style>.bc69a5ec-1d64-41a4-8c6b-ae9f3545a375{fill:#f9d542;}</style></defs><circle class="bc69a5ec-1d64-41a4-8c6b-ae9f3545a375" cx="710.7" cy="596.7" r="490.77"/><path d="M1192.36,65.22,74.43,257.59a19.54,19.54,0,0,0-16,22.59l126,732.44a19.54,19.54,0,0,0,22.59,16l501.14-86.23,10,57.82-96.37,16.58,16.58,96.38,308.4-53.07-16.58-96.37-96.38,16.58-10-57.82L1325,836.21a19.53,19.53,0,0,0,16-22.59L1215,81.18A19.55,19.55,0,0,0,1192.36,65.22ZM898.3,1008.87l3.32,19.27-231.3,39.8L667,1048.67l96.38-16.58-16.59-96.38,38.55-6.63,16.59,96.37ZM1299.13,801,817.26,883.9,701.61,903.8,219.74,986.71,100.34,292.82,1179.72,107.09Z"/><path d="M1208.13,618.18,964.77,660.06l-1.88-1.17a108.36,108.36,0,0,0-24.26-11.2l-99-42.29-2-.74c-7.33-2.21-15.08-2.49-21.91-2.74-2.17-.06-5-.19-7.35-.38L804,576.44c.77-.73,1.57-1.52,2.38-2.31,11.51-11.23,16.84-16.77,19.63-22.59,10.11-21.21,20-43.86,24.76-67.19,17.06-11.67,31.3-31,27.72-51.79l-7.44-43.27c-1.37-8-5.83-15.19-13.22-21.46-5.51-4.69-12.49-12.61-14.4-23.72L840,323.8c-9.23-46.28-58.17-128.39-177.35-107.89s-137.85,114.26-131,161.46l3.41,19.8c1.91,11.1-2,20.9-5.63,27.14-4.88,8.42-6.67,16.73-5.3,24.69l7.45,43.27c3.2,18.58,20.75,29.11,32.84,34.83,19.53,36.65,63.36,58.86,84,67.66l4.4,25.58c-4.18,5.76-18.31,15.72-24.63,20.18-3.89,2.75-7.32,5.19-10.22,7.49L536.7,716a107.62,107.62,0,0,0-19.06,19.75l-1.1,1.46-98.67,17,23.22,134.92,790.26-136ZM642.67,678.35c2.05-1.62,4.88-3.61,8.08-5.87,20.16-14.23,45.25-31.92,41.17-55.67l-8.78-51-11-3.75c-16.59-5.65-62.44-27-75.16-57.45l-3.07-7.34-7.3-3.12c-13.24-5.64-16.15-9.21-16.51-8.53L563,444.37a3,3,0,0,0,.24-.44c9.7-16.73,13.38-35.72,10.34-53.4l-3.32-19.29c-.59-4-12.84-97.54,99-116.78,109-18.76,130.28,67.21,132.23,76.48l3.41,19.79c3,17.45,12.57,33.88,28,47.32l7.06,40.88c-.17,2.84-6.75,11.28-15.72,15.8l-9.07,4.6-1.44,10.09c-3,21.42-12.83,44-22.21,63.87-1.65,2.31-8.67,9.15-12.42,12.84-7.2,7-10.47,10.29-12.63,13.78l-3.85,6.32,8.22,47.82c4.4,25.54,30.78,26.5,43.46,27a75.69,75.69,0,0,1,11.27.9l70.26,30L586.74,725.11Zm543.5,42.84L473,843.91l-9.95-57.83,78.43-13.49,412.08-70.91,222.66-38.32Z"/><path d="M1128.53,155.59l-115.65,19.9,19.91,115.65,115.64-19.9Zm-25.28,83.73L1064.7,246l-6.63-38.55,38.55-6.63Z"/><path d="M379.32,760.8,244.4,784l23.22,134.92,134.92-23.22Zm-22,103-57.83,10-9.95-57.83L347.41,806Z"/></svg>