<svg id="a7d3150c-9c68-43bd-aca4-f6d2cdd1583f" data-name="Layer 1" xmlns="http://www.w3.org/2000/svg" viewBox="0 0 1426 1198"><defs><style>.bd99ea77-1dc8-4619-8c9f-070a0b961422{fill:#f9d542;}</style></defs><circle class="bd99ea77-1dc8-4619-8c9f-070a0b961422" cx="713" cy="599" r="489.14"/><path d="M1174.27,1006l-296-296c49.13-65.56,78.61-146.64,78.61-234.67,0-216.49-176.11-392.59-392.59-392.59S171.73,258.83,171.73,475.32s176.1,392.59,392.59,392.59c88,0,169.11-29.48,234.67-78.61l296,296ZM209.12,475.32c0-195.87,159.33-355.2,355.2-355.2s355.2,159.33,355.2,355.2-159.34,355.2-355.2,355.2S209.12,671.18,209.12,475.32ZM836.64,757.48q5-4.83,9.82-9.82c2.73-2.82,5.68-5.42,8.32-8.32L1121.4,1006,1095,1032.42,828.34,765.78C831.24,763.14,833.82,760.19,836.64,757.48Z"/></svg>