<svg id="e4023035-7b5e-45e4-85f8-486da1143e32" data-name="Layer 1" xmlns="http://www.w3.org/2000/svg" viewBox="0 0 1426 1198"><defs><style>.b47faab5-7c01-4d8c-874a-cbcb1da471ee{fill:#f9d542;}.e15b64c9-ca70-4dfd-ada4-ea2994006e5d{stroke:#000;stroke-miterlimit:10;}</style></defs><circle class="b47faab5-7c01-4d8c-874a-cbcb1da471ee" cx="733.68" cy="582.06" r="489.14"/><path class="e15b64c9-ca70-4dfd-ada4-ea2994006e5d" d="M533.43,900.58a63.74,63.74,0,1,0,69.11,57.88A63.82,63.82,0,0,0,533.43,900.58Zm8.42,95.24a31.87,31.87,0,1,1,28.94-34.55A31.9,31.9,0,0,1,541.85,995.82Z"/><path class="e15b64c9-ca70-4dfd-ada4-ea2994006e5d" d="M408.17,207.79l63.49-5.61a15.94,15.94,0,0,0-2.8-31.75l-63.49,5.62a15.93,15.93,0,0,0,2.8,31.74Z"/><path class="e15b64c9-ca70-4dfd-ada4-ea2994006e5d" d="M519.28,198l15.88-1.41a15.93,15.93,0,1,0-2.81-31.74l-15.87,1.4a15.94,15.94,0,0,0,2.8,31.75Z"/><path class="e15b64c9-ca70-4dfd-ada4-ea2994006e5d" d="M1117.92,816.9a15.94,15.94,0,0,0-31.75,2.81l1.41,15.87a15.93,15.93,0,1,0,31.74-2.81Z"/><path class="e15b64c9-ca70-4dfd-ada4-ea2994006e5d" d="M1101.07,626.43a15.93,15.93,0,1,0-31.74,2.8l1.4,15.88a15.94,15.94,0,0,0,31.75-2.81Z"/><path class="e15b64c9-ca70-4dfd-ada4-ea2994006e5d" d="M1112.3,753.41a15.93,15.93,0,1,0-31.74,2.81l1.4,15.87a15.94,15.94,0,1,0,31.75-2.81Z"/><path class="e15b64c9-ca70-4dfd-ada4-ea2994006e5d" d="M1106.69,689.92a15.94,15.94,0,0,0-31.75,2.8l1.41,15.88a15.93,15.93,0,1,0,31.74-2.81Z"/><path class="e15b64c9-ca70-4dfd-ada4-ea2994006e5d" d="M1095.46,562.93a15.94,15.94,0,1,0-31.75,2.81l1.41,15.87a15.93,15.93,0,0,0,31.74-2.8Z"/><path class="e15b64c9-ca70-4dfd-ada4-ea2994006e5d" d="M1123.53,880.39a15.93,15.93,0,1,0-31.74,2.81l1.4,15.87a15.94,15.94,0,1,0,31.75-2.81Z"/><path class="e15b64c9-ca70-4dfd-ada4-ea2994006e5d" d="M1111.87,929.41a15.94,15.94,0,0,0-14.47,17.28l1.41,15.87a15.93,15.93,0,1,0,31.74-2.8l-1.4-15.88A16,16,0,0,0,1111.87,929.41Z"/><path class="e15b64c9-ca70-4dfd-ada4-ea2994006e5d" d="M880.08,1013.9l-15.78,1.4a15.93,15.93,0,1,0,2.81,31.74l15.77-1.39a15.94,15.94,0,0,0-2.8-31.75Z"/><path class="e15b64c9-ca70-4dfd-ada4-ea2994006e5d" d="M817,1019.48l-12.57,1.11.06-.15a68.8,68.8,0,0,0,4.31-9.93c.29-.84.59-1.67.85-2.51s.56-1.47.76-2.24a14.15,14.15,0,0,0,.11-1.83,68.34,68.34,0,0,0,2-22.53l-2.17-24.54-1.28-14.47-3.85-43.45L804,884.45,800.11,841l-1.28-14.48L795,783.07l-1.28-14.49-3.85-43.45-1.28-14.47-3.84-43.46-1.28-14.49-3.84-43.45-1.28-14.47L775,557a15.53,15.53,0,0,0-2.39-27L740.67,168.87a70.29,70.29,0,0,0-76.11-63.74L264.73,140.49A70.29,70.29,0,0,0,201,216.6l71.86,812.51a70.29,70.29,0,0,0,76.1,63.76l399.82-35.36,7.94-.7a15.76,15.76,0,0,0,6.56-2.2,69.51,69.51,0,0,0,24.38-13.39,15.74,15.74,0,0,0,16.38,11.4l15.78-1.39a15.94,15.94,0,0,0-2.81-31.75ZM237.78,270.85,714,228.74l26.67,301.58,2.11,23.81,3.84,43.45,1.28,14.47,3.84,43.45L753,670l3.85,43.44,1.28,14.48L762,771.37l1.28,14.51,3.84,43.44.23,2.59L291.13,874Zm29.75-98.61,399.83-35.36a38.37,38.37,0,0,1,41.56,34.8L711.16,197,235,239.11l-2.23-25.32A38.36,38.36,0,0,1,267.53,172.24ZM746,1025.76l-399.83,35.36a38.38,38.38,0,0,1-41.56-34.8L293.93,905.77l476.19-42.11,2.09,23.58,1.28,14.49,3.84,43.45,1.28,14.47,2.17,24.54a38.48,38.48,0,0,1-34.8,41.57Z"/><path class="e15b64c9-ca70-4dfd-ada4-ea2994006e5d" d="M943.17,1008.32l-15.78,1.4a15.93,15.93,0,0,0,2.81,31.74l15.78-1.39a15.94,15.94,0,1,0-2.81-31.75Z"/><path class="e15b64c9-ca70-4dfd-ada4-ea2994006e5d" d="M956.83,543.2A15.94,15.94,0,0,0,954,511.45l-15.78,1.4a15.94,15.94,0,1,0,2.81,31.75Z"/><path class="e15b64c9-ca70-4dfd-ada4-ea2994006e5d" d="M830.65,554.36a15.94,15.94,0,0,0-2.8-31.75L812.07,524a15.93,15.93,0,1,0,2.81,31.74Z"/><path class="e15b64c9-ca70-4dfd-ada4-ea2994006e5d" d="M1006.25,1002.74l-15.78,1.4a15.93,15.93,0,1,0,2.81,31.74l15.78-1.39a15.94,15.94,0,1,0-2.81-31.75Z"/><path class="e15b64c9-ca70-4dfd-ada4-ea2994006e5d" d="M893.73,548.78a15.94,15.94,0,0,0-2.8-31.75l-15.78,1.4A15.94,15.94,0,1,0,878,550.18Z"/><path class="e15b64c9-ca70-4dfd-ada4-ea2994006e5d" d="M1132.41,991.59,1116.63,993a15.94,15.94,0,0,0,2.81,31.75l15.78-1.4a15.93,15.93,0,1,0-2.81-31.74Z"/><path class="e15b64c9-ca70-4dfd-ada4-ea2994006e5d" d="M1189.88,726.21a15.93,15.93,0,0,0-14.46,17.28l1.39,15.78a15.94,15.94,0,1,0,31.75-2.81l-1.4-15.78A15.93,15.93,0,0,0,1189.88,726.21Z"/><path class="e15b64c9-ca70-4dfd-ada4-ea2994006e5d" d="M1201,852.39a15.94,15.94,0,0,0-14.47,17.28l1.4,15.76a15.93,15.93,0,1,0,31.74-2.81l-1.39-15.76A15.93,15.93,0,0,0,1201,852.39Z"/><path class="e15b64c9-ca70-4dfd-ada4-ea2994006e5d" d="M1195.46,789.29A15.94,15.94,0,0,0,1181,806.57l1.4,15.76a15.93,15.93,0,1,0,31.74-2.81l-1.39-15.76A15.94,15.94,0,0,0,1195.46,789.29Z"/><path class="e15b64c9-ca70-4dfd-ada4-ea2994006e5d" d="M1184.3,663.12a15.93,15.93,0,0,0-14.46,17.28l1.39,15.77a15.94,15.94,0,0,0,31.75-2.8l-1.4-15.78A15.93,15.93,0,0,0,1184.3,663.12Z"/><path class="e15b64c9-ca70-4dfd-ada4-ea2994006e5d" d="M1189.12,548.83a15.94,15.94,0,0,0-30.78,8.27,39.36,39.36,0,0,1,1.18,6.65l.55,6.27a15.94,15.94,0,0,0,31.75-2.81l-.55-6.27A71.6,71.6,0,0,0,1189.12,548.83Z"/><path class="e15b64c9-ca70-4dfd-ada4-ea2994006e5d" d="M1019.91,537.62a15.93,15.93,0,1,0-2.81-31.74l-15.78,1.39a15.94,15.94,0,1,0,2.81,31.75Z"/><path class="e15b64c9-ca70-4dfd-ada4-ea2994006e5d" d="M1178.73,600a15.93,15.93,0,0,0-14.47,17.28l1.39,15.76a15.94,15.94,0,0,0,31.75-2.81l-1.4-15.76A15.94,15.94,0,0,0,1178.73,600Z"/><path class="e15b64c9-ca70-4dfd-ada4-ea2994006e5d" d="M1083,532a15.93,15.93,0,0,0-2.81-31.74l-15.78,1.39a15.94,15.94,0,1,0,2.81,31.75Z"/><path class="e15b64c9-ca70-4dfd-ada4-ea2994006e5d" d="M1069.33,997.16l-15.78,1.4a15.94,15.94,0,0,0,2.81,31.75l15.78-1.4a15.94,15.94,0,1,0-2.81-31.75Z"/><path class="e15b64c9-ca70-4dfd-ada4-ea2994006e5d" d="M1137.35,532.31a15.94,15.94,0,0,0,13.39-28.93,69.53,69.53,0,0,0-19.64-5.76,15.93,15.93,0,0,0-4.36,31.56A37.75,37.75,0,0,1,1137.35,532.31Z"/><path class="e15b64c9-ca70-4dfd-ada4-ea2994006e5d" d="M1206.62,915.45a15.94,15.94,0,0,0-14.47,17.28l1.4,15.76a15.61,15.61,0,0,0,17.24,14.09c8.76-.78,15.21-8.91,14.43-17.68l-1.32-15A16,16,0,0,0,1206.62,915.45Z"/><path class="e15b64c9-ca70-4dfd-ada4-ea2994006e5d" d="M1181.94,978.63a37.68,37.68,0,0,1-9,6.51,15.93,15.93,0,1,0,14.64,28.3,70.66,70.66,0,0,0,16.58-11.93,15.94,15.94,0,0,0-22.2-22.88Z"/><path class="e15b64c9-ca70-4dfd-ada4-ea2994006e5d" d="M1043.5,406.33a16,16,0,0,0,6.18.68,15.73,15.73,0,0,0,6-1.76,16,16,0,0,0,4.87-3.88l86.8-103.66a15.93,15.93,0,1,0-24.43-20.46l-62.11,74.17-3.63-41.05c-10.07-113.78-110.82-198.16-224.6-188.1A15.94,15.94,0,0,0,835.34,154c96.27-8.52,181.53,62.89,190,159.16l3.63,41.05-74.17-62.12a15.93,15.93,0,0,0-20.46,24.43L1038,403.36A16.16,16.16,0,0,0,1043.5,406.33Z"/></svg>