<svg id="a0a926f8-b1b0-4b0b-835e-f76f0953ef3e" data-name="Layer 1" xmlns="http://www.w3.org/2000/svg" viewBox="0 0 1426 1198"><defs><style>.bd8e582e-e988-4301-a02d-6f414d3e5ecf{fill:#f9d542;}</style></defs><circle class="bd8e582e-e988-4301-a02d-6f414d3e5ecf" cx="713" cy="599" r="489.14"/><path d="M1047.44,470.07l158.85-143a21.46,21.46,0,0,0,0-31.94l-158.9-143H707.07V116.84a17.67,17.67,0,1,0-35.33,0v35.33H360.86a60,60,0,0,0-60,60V410.06a60,60,0,0,0,60,60h310.9v35.32H378.56l-158.92,143a21.46,21.46,0,0,0,0,31.88l158.9,143H671.74v317.89a17.67,17.67,0,1,0,35.33,0V823.27H1071a60,60,0,0,0,60-60V565.35a60,60,0,0,0-60-60H707.07v-35.3Zm48.16,95.28V763.28A24.66,24.66,0,0,1,1071,787.93H392.12L254.75,664.3,392.12,540.68H1071A24.7,24.7,0,0,1,1095.6,565.35ZM336.19,410.08V212.15a24.65,24.65,0,0,1,24.65-24.65h673l137.37,123.62L1033.86,434.75h-673A24.71,24.71,0,0,1,336.19,410.08Z"/></svg>