<svg id="b0328c1a-60d5-421b-af06-2d299f68d49c" data-name="Layer 1" xmlns="http://www.w3.org/2000/svg" viewBox="0 0 1426 1198"><defs><style>.aedd5617-d408-4a2f-882a-4ad3baab9cb5{fill:#f9d542;}</style></defs><circle class="aedd5617-d408-4a2f-882a-4ad3baab9cb5" cx="713" cy="599" r="489.14"/><path d="M385,800.17a84.06,84.06,0,1,0,84.06,84.06A84.16,84.16,0,0,0,385,800.17Zm0,134.49a50.44,50.44,0,1,1,50.44-50.43A50.5,50.5,0,0,1,385,934.66Z"/><path d="M1175.14,665.68c0-41.95-23.12-61.57-45.65-71.17a84,84,0,0,0-55.22-147.38H832.75L845,389.8c16.35-76.48,5.61-163.34,2-188.14-8.71-58.72-60.64-124.39-117.11-124.39h-4C699,77.27,654,92.55,654,195c0,134.88-33.66,196.6-61.89,224.61-27.68,27.47-54.31,27.16-55.79,27.57H519.48V413.5h-269v638.84h269v-33.62H990.21a84,84,0,0,0,66.08-136,84,84,0,0,0,50.44-134.49A84.18,84.18,0,0,0,1175.14,665.68Zm-891,353V447.13H485.86v571.59Zm807-302.61H906.15a16.82,16.82,0,0,0,0,33.63h134.49a50.43,50.43,0,1,1,0,100.86H872.53a16.82,16.82,0,0,0,0,33.63H990.21a50.44,50.44,0,0,1,0,100.87H519.48V480.75l16.3,0c1.63.32,40.68.84,78.71-36,48.52-47,73.11-131,73.11-249.74,0-31.38,5-84,38.23-84h4c37.5,0,77.47,52.62,83.84,95.67,3.48,23.4,13.61,105.24-1.57,176.19l-20.93,98h283.08a50.44,50.44,0,0,1,0,100.87H906.15a16.81,16.81,0,1,0,0,33.62h117.68c14.85,0,47.49.68,64.79,3.25,43.9,6.5,52.89,23.57,52.89,47.19A50.5,50.5,0,0,1,1091.08,716.11Z"/></svg>