<svg id="ad4e4647-07a3-4e0e-a630-10301cb66550" data-name="Layer 1" xmlns="http://www.w3.org/2000/svg" viewBox="0 0 1426 1198"><defs><style>.a4f4ca7c-bf15-4111-adbb-cc6a70911608{fill:#f9d542;}</style></defs><circle class="a4f4ca7c-bf15-4111-adbb-cc6a70911608" cx="713" cy="599" r="489.14"/><path d="M1132.6,101.71,143.69,284a18,18,0,0,0-14.41,20.91l143.21,777a18,18,0,0,0,20.91,14.4L1282.31,914a18,18,0,0,0,14.41-20.91l-143.21-777A18,18,0,0,0,1132.6,101.71ZM1258.14,882,304.55,1057.72,167.86,316l953.59-175.75Z"/><path d="M480.63,626.09a100,100,0,1,0-116.47-80.22A100.11,100.11,0,0,0,480.63,626.09ZM450.88,464.72a64.09,64.09,0,1,1-51.4,74.66A64.17,64.17,0,0,1,450.88,464.72Z"/><path d="M379.83,970.81a17.89,17.89,0,0,0,10.84-6.55L632,657.55,847.45,805.93a18,18,0,0,0,20.37-29.58L767.29,707.11l129.4-207.42,232.46,145.64a18,18,0,1,0,19.06-30.44L900.5,459.69a18.55,18.55,0,0,0-13.57-2.28,18,18,0,0,0-11.2,8l-138,221.3L638.5,618.39a18,18,0,0,0-24.3,3.68L362.46,942a18,18,0,0,0,17.37,28.77Z"/></svg>