<svg id="a7210737-8957-4eb4-ba09-967bc0a34485" data-name="Layer 1" xmlns="http://www.w3.org/2000/svg" viewBox="0 0 270 250"><defs><style>.bd130246-7c18-497e-be2b-cbeaafe4a7a6{fill:#f9d542;}.ab648621-4aeb-4468-9d29-839c3dbd7a20{fill:#0f0f0f;}</style></defs><circle class="bd130246-7c18-497e-be2b-cbeaafe4a7a6" cx="134.5" cy="124.5" r="106.5"/><path class="ab648621-4aeb-4468-9d29-839c3dbd7a20" d="M225.85,12.07l-39.16,8.16-141,29.41L6.57,57.81a4,4,0,0,0-3.1,4.74l9,43.07,9,43.07,9,43.07,9,43.08a4,4,0,0,0,4.73,3.09l39.16-8.16,141-29.41,39.16-8.17a4,4,0,0,0,3.1-4.74l-9-43.07-9-43.07-9-43.07-9-43.08A4,4,0,0,0,225.85,12.07Zm14.06,87-31.33,6.53-7.35-35.24,31.32-6.53ZM192.58,68l8.17,39.16L67.62,135,59.45,95.81,51.28,56.66,184.41,28.88ZM59.78,136.61l-31.32,6.53L21.11,107.9l31.32-6.54ZM30.09,151l31.33-6.53,7.35,35.24-31.32,6.53Zm47.33,31L69.25,142.8,202.38,115l8.17,39.16,8.17,39.15L85.59,221.12Zm132.8-68.57,31.32-6.53,7.35,35.24-31.32,6.54Zm13.35-92.68L230.92,56,199.6,62.49l-7.36-35.24ZM12.12,64.83l31.33-6.54L50.8,93.53l-31.33,6.54ZM46.43,229.29,39.08,194l31.32-6.53,7.36,35.24Zm211.45-44.12-31.33,6.54-7.35-35.24,31.33-6.54Z"/></svg>