<svg id="f48c41c8-2d35-419b-871f-f89011937896" data-name="Layer 1" xmlns="http://www.w3.org/2000/svg" viewBox="0 0 1426 1198"><defs><style>.ef8ecbcb-3dff-49d7-86f5-165125cdef7c{fill:#f9d542;}</style></defs><circle class="ef8ecbcb-3dff-49d7-86f5-165125cdef7c" cx="710.7" cy="596.7" r="490.77"/><path d="M1175.11,898.72l-177-76.66c-4.16-2.08-8.78-7.17-12.75-14l118.17-.09c2.07.2,50.78,4.65,89.85-12.14a53.78,53.78,0,0,0,22.51-80.22c-33.78-48.07-112.61-173.66-115.07-301-.06-2.19-7.19-218.82-221.13-220.58-31.49.26-60.61,5.6-87.11,15.45a150.62,150.62,0,0,0-26.94-44.53c-37.18-42.45-97.54-64-179.42-64S444,122.49,406.8,164.9c-42.89,48.92-38.9,108.23-37.89,118.17V379.4a72.22,72.22,0,0,0-18.11,47.54v72.44a72,72,0,0,0,27.11,56.3c16.59,65.69,51.31,115.18,63.44,131.06v59.93a47.84,47.84,0,0,1-24.94,42L254.85,876.81a163.36,163.36,0,0,0-85.15,143.46V1097H1256.3v-67A146.06,146.06,0,0,0,1175.11,898.72ZM966.54,1060.8H205.92v-40.53a127.08,127.08,0,0,1,66.26-111.63l161.56-88.12a84.09,84.09,0,0,0,43.83-73.83V673.9l-4.22-5c-.43-.53-44.82-54.22-61.75-128L410,533.75l-6.18-4A36.15,36.15,0,0,1,387,499.4V427a35.77,35.77,0,0,1,12.13-26.72l6-5.38V282.08L405,279.7c-.06-.49-6.21-50.69,29.06-90.93,30-34.23,81.23-51.57,152.2-51.57,70.72,0,121.83,17.22,151.87,51.21,14.94,16.88,22.46,35.73,26.21,51.92.29,1.27.56,2.52.81,3.77s.53,2.57.72,3.8c.24,1.41.44,2.75.64,4.09.14,1,.29,1.94.4,2.87.27,2.24.49,4.41.63,6.43a3.62,3.62,0,0,1,0,.47c.13,1.95.22,3.8.27,5.48,0,.33,0,.6,0,.93,0,1.5,0,2.93,0,4.18v.54c-.08,4.26-.37,6.79-.37,6.85l-.14,115.12,6,5.4A35.69,35.69,0,0,1,785.44,427V499.4a36,36,0,0,1-25.75,34.39l-9,2.77-2.9,9A378.76,378.76,0,0,1,696.45,649a238.56,238.56,0,0,1-15.16,19.54l-4.51,5.15v74.7a84.88,84.88,0,0,0,1.16,13.49c.14.94.4,1.85.58,2.79a84,84,0,0,0,2.81,10.69c.27.81.56,1.59.86,2.41a85.24,85.24,0,0,0,5,11c.21.4.41.82.63,1.22A82.51,82.51,0,0,0,696.94,803l4.13,5.09h.7a84.47,84.47,0,0,0,21.46,15.5l173,86.49a126.4,126.4,0,0,1,70.3,113.72Zm253.54,0H1002.76v-37a162.5,162.5,0,0,0-90.3-146.12L788.27,815.58a31.37,31.37,0,0,0-28.75-43.72H719.37a46.91,46.91,0,0,1-2-4.64,46,46,0,0,1-2.57-6.32A47,47,0,0,1,713,748.37V687.14c4.15-5.07,8.51-10.85,13-17.22a414.51,414.51,0,0,0,53.5-105,71.86,71.86,0,0,0,42.14-65.5V427a72.22,72.22,0,0,0-18.11-47.54V283.09A159.73,159.73,0,0,0,802,244.35c23.32-9.16,49.46-13.89,77.69-14.12,178.22,1.46,184.72,177.67,184.9,185.1,2.67,137.33,86,270.33,121.65,321.12a17.61,17.61,0,0,1,2.52,15,17,17,0,0,1-9.69,11.14c-30.43,13.09-71.7,9.38-73.82,9.29H980.63a33.38,33.38,0,0,0-30,48.12c5.66,11.43,15.68,26.69,32.14,34.9l176.52,76.46a110,110,0,0,1,60.74,98.73Z"/></svg>