<svg id="fe7126a3-4972-4006-8b02-ecf12092ecf3" data-name="Layer 1" xmlns="http://www.w3.org/2000/svg" viewBox="0 0 1426 1198"><defs><style>.ae2415ea-e259-474c-8061-8c98171204d4{fill:#f9d542;}</style></defs><circle class="ae2415ea-e259-474c-8061-8c98171204d4" cx="713" cy="599" r="489.14"/><path d="M402.56,1075.31a18.62,18.62,0,0,1-18.37-21.8l57.64-336L197.71,479.57a18.64,18.64,0,0,1,10.35-31.79l337.35-49L696.29,93.05A18.61,18.61,0,0,1,713,82.64h0a18.59,18.59,0,0,1,16.71,10.41l150.86,305.7,337.37,49a18.64,18.64,0,0,1,10.35,31.79l-244.13,238,57.63,336a18.7,18.7,0,0,1-7.41,18.24,18.51,18.51,0,0,1-19.65,1.42L713,914.56,411.23,1073.19A18.88,18.88,0,0,1,402.56,1075.31ZM250.8,479.24,474.88,697.66a18.69,18.69,0,0,1,5.35,16.51l-52.91,308.41L704.33,877a18.58,18.58,0,0,1,17.36,0l277,145.61L945.77,714.17a18.67,18.67,0,0,1,5.35-16.51L1175.2,479.24l-309.66-45a18.64,18.64,0,0,1-14-10.2L713,143.45,574.5,424.06a18.68,18.68,0,0,1-14,10.2Z"/></svg>